# xmcd CD database file
#
# Track frame offsets:
#	183
#	12808
#	29598
#	42135
#	53960
#	66873
#	78683
#	91418
#	103723
#	116425
#	129515
#	142513
#	150798
#	159438
#	168885
#	179605
#	189335
#	201820
#	214008
#	228785
#
# Disc length: 3305 seconds
#
# Revision: 1
# Processed by: cddbd v1.5.1PL2 Copyright (c) Steve Scherf et al.
# Submitted via: CDex 1.51
#
DISCID=f90ce714
DTITLE=Various Artist - Country For Lovers
DYEAR=1992
DGENRE=Country
TTITLE0=Laine, Frankie - High Noon
TTITLE1=Anderson, Lynn - Blue Bayou
TTITLE2=Thomas, B. J. - Hooked On A Feeling
TTITLE3=Rogers, Kenny - Me And Bobby McGee
TTITLE4=Tillotson, Johnny - Send Me The Pillow That You Dream On
TTITLE5=Starr, Lucille - Crazy Arms
TTITLE6=Young, Faron - It's Four In The Morning
TTITLE7=Nelson, Willie - Shelter Of My Arms
TTITLE8=Miller, Roger - Heartaches By The Number
TTITLE9=Lynn, Loretta - Let Your Love Flow (Live)
TTITLE10=Stevens, Ray - Misty
TTITLE11=Lewis, Jerry Lee - Save The Last Dance For Me
TTITLE12=Jennings, Waylon - Love's Gonna Live Here
TTITLE13=Fender, Freddy - Hope Someday You'll Forgive Me
TTITLE14=Everly Brothers, The - Devoted To You
TTITLE15=Miller, Ned - From A Jack To A King
TTITLE16=Pride, Charley - Crystal Candeliers
TTITLE17=Axton, Hoyt - We Could've Been Sweethearts
TTITLE18=Faithfull, Marianne - Dreamin' My Dreams
TTITLE19=Buoys, The - Give Up Your Guns
EXTD=YEAR: 1992
EXTT0=
EXTT1=
EXTT2=
EXTT3=
EXTT4=
EXTT5=
EXTT6=
EXTT7=
EXTT8=
EXTT9=
EXTT10=
EXTT11=
EXTT12=
EXTT13=
EXTT14=
EXTT15=
EXTT16=
EXTT17=
EXTT18=
EXTT19=
PLAYORDER=
